<mxfile host="app.diagrams.net" modified="2023-08-01T21:08:14.434Z" agent="Mozilla/5.0 (Windows NT 10.0; Win64; x64) AppleWebKit/537.36 (KHTML, like Gecko) Chrome/114.0.0.0 Safari/537.36 OPR/100.0.0.0" etag="Fdkg5z9i7t2ZgcWqOotS" version="21.6.5" type="device">
  <diagram id="C5RBs43oDa-KdzZeNtuy" name="Page-1">
    <mxGraphModel dx="2194" dy="1887" grid="1" gridSize="10" guides="1" tooltips="1" connect="1" arrows="1" fold="1" page="1" pageScale="1" pageWidth="827" pageHeight="1169" math="0" shadow="0">
      <root>
        <mxCell id="WIyWlLk6GJQsqaUBKTNV-0" />
        <mxCell id="WIyWlLk6GJQsqaUBKTNV-1" parent="WIyWlLk6GJQsqaUBKTNV-0" />
        <mxCell id="slgPaLGqE5JEInqj2BbJ-7" value="" style="edgeStyle=orthogonalEdgeStyle;rounded=0;orthogonalLoop=1;jettySize=auto;html=1;" edge="1" parent="WIyWlLk6GJQsqaUBKTNV-1" source="slgPaLGqE5JEInqj2BbJ-0">
          <mxGeometry relative="1" as="geometry">
            <mxPoint x="-682.5" y="-30" as="targetPoint" />
          </mxGeometry>
        </mxCell>
        <mxCell id="slgPaLGqE5JEInqj2BbJ-0" value="START" style="ellipse;whiteSpace=wrap;html=1;fillColor=#13E80C;strokeColor=#61FF05;" vertex="1" parent="WIyWlLk6GJQsqaUBKTNV-1">
          <mxGeometry x="-750" y="-160" width="135" height="60" as="geometry" />
        </mxCell>
        <mxCell id="slgPaLGqE5JEInqj2BbJ-18" value="" style="edgeStyle=orthogonalEdgeStyle;rounded=0;orthogonalLoop=1;jettySize=auto;html=1;" edge="1" parent="WIyWlLk6GJQsqaUBKTNV-1" source="slgPaLGqE5JEInqj2BbJ-1" target="slgPaLGqE5JEInqj2BbJ-11">
          <mxGeometry relative="1" as="geometry" />
        </mxCell>
        <mxCell id="slgPaLGqE5JEInqj2BbJ-1" value="&lt;font style=&quot;font-size: 17px;&quot;&gt;Log in to the Website&lt;/font&gt;" style="rounded=1;whiteSpace=wrap;html=1;fillColor=#FCA4DF;strokeColor=#BF588B;" vertex="1" parent="WIyWlLk6GJQsqaUBKTNV-1">
          <mxGeometry x="-820" y="-30" width="290" height="60" as="geometry" />
        </mxCell>
        <mxCell id="slgPaLGqE5JEInqj2BbJ-2" value="Yes&lt;br&gt;" style="text;html=1;strokeColor=none;fillColor=none;align=center;verticalAlign=middle;whiteSpace=wrap;rounded=0;" vertex="1" parent="WIyWlLk6GJQsqaUBKTNV-1">
          <mxGeometry x="-640" y="-90" width="60" height="30" as="geometry" />
        </mxCell>
        <mxCell id="slgPaLGqE5JEInqj2BbJ-3" value="Yes&lt;br&gt;" style="text;html=1;strokeColor=none;fillColor=none;align=center;verticalAlign=middle;whiteSpace=wrap;rounded=0;" vertex="1" parent="WIyWlLk6GJQsqaUBKTNV-1">
          <mxGeometry x="-630" y="40" width="60" height="30" as="geometry" />
        </mxCell>
        <mxCell id="slgPaLGqE5JEInqj2BbJ-4" value="1" style="text;html=1;strokeColor=none;fillColor=none;align=center;verticalAlign=middle;whiteSpace=wrap;rounded=0;" vertex="1" parent="WIyWlLk6GJQsqaUBKTNV-1">
          <mxGeometry x="-770" y="-90" width="60" height="30" as="geometry" />
        </mxCell>
        <mxCell id="slgPaLGqE5JEInqj2BbJ-5" value="2" style="text;html=1;strokeColor=none;fillColor=none;align=center;verticalAlign=middle;whiteSpace=wrap;rounded=0;" vertex="1" parent="WIyWlLk6GJQsqaUBKTNV-1">
          <mxGeometry x="-790" y="50" width="60" height="30" as="geometry" />
        </mxCell>
        <mxCell id="slgPaLGqE5JEInqj2BbJ-24" value="" style="edgeStyle=orthogonalEdgeStyle;rounded=0;orthogonalLoop=1;jettySize=auto;html=1;" edge="1" parent="WIyWlLk6GJQsqaUBKTNV-1" source="slgPaLGqE5JEInqj2BbJ-8" target="slgPaLGqE5JEInqj2BbJ-13">
          <mxGeometry relative="1" as="geometry" />
        </mxCell>
        <mxCell id="slgPaLGqE5JEInqj2BbJ-8" value="&lt;font style=&quot;font-size: 16px;&quot;&gt;Name the Repository&lt;/font&gt;" style="rounded=1;whiteSpace=wrap;html=1;fillColor=#dae8fc;strokeColor=#6c8ebf;" vertex="1" parent="WIyWlLk6GJQsqaUBKTNV-1">
          <mxGeometry x="-413" y="270" width="290" height="60" as="geometry" />
        </mxCell>
        <mxCell id="slgPaLGqE5JEInqj2BbJ-23" style="edgeStyle=orthogonalEdgeStyle;rounded=0;orthogonalLoop=1;jettySize=auto;html=1;" edge="1" parent="WIyWlLk6GJQsqaUBKTNV-1" source="slgPaLGqE5JEInqj2BbJ-9" target="slgPaLGqE5JEInqj2BbJ-8">
          <mxGeometry relative="1" as="geometry">
            <mxPoint x="-270" y="340" as="targetPoint" />
          </mxGeometry>
        </mxCell>
        <mxCell id="slgPaLGqE5JEInqj2BbJ-9" value="&lt;font style=&quot;font-size: 16px;&quot;&gt;Create Online Repository&lt;/font&gt;" style="rounded=1;whiteSpace=wrap;html=1;fillColor=#dae8fc;strokeColor=#6c8ebf;" vertex="1" parent="WIyWlLk6GJQsqaUBKTNV-1">
          <mxGeometry x="-820" y="470" width="290" height="60" as="geometry" />
        </mxCell>
        <mxCell id="slgPaLGqE5JEInqj2BbJ-10" value="&lt;font style=&quot;font-size: 16px;&quot;&gt;Define job requirement&lt;/font&gt;" style="rounded=1;whiteSpace=wrap;html=1;fillColor=#dae8fc;strokeColor=#6c8ebf;" vertex="1" parent="WIyWlLk6GJQsqaUBKTNV-1">
          <mxGeometry x="-200" y="-210" width="290" height="60" as="geometry" />
        </mxCell>
        <mxCell id="slgPaLGqE5JEInqj2BbJ-19" value="" style="edgeStyle=orthogonalEdgeStyle;rounded=0;orthogonalLoop=1;jettySize=auto;html=1;" edge="1" parent="WIyWlLk6GJQsqaUBKTNV-1" source="slgPaLGqE5JEInqj2BbJ-11" target="slgPaLGqE5JEInqj2BbJ-12">
          <mxGeometry relative="1" as="geometry" />
        </mxCell>
        <mxCell id="slgPaLGqE5JEInqj2BbJ-11" value="&lt;font style=&quot;font-size: 16px;&quot;&gt;Open Dashboard&amp;nbsp;&lt;/font&gt;" style="rounded=1;whiteSpace=wrap;html=1;fillColor=#dae8fc;strokeColor=#6c8ebf;" vertex="1" parent="WIyWlLk6GJQsqaUBKTNV-1">
          <mxGeometry x="-820" y="100" width="290" height="60" as="geometry" />
        </mxCell>
        <mxCell id="slgPaLGqE5JEInqj2BbJ-20" style="edgeStyle=orthogonalEdgeStyle;rounded=0;orthogonalLoop=1;jettySize=auto;html=1;" edge="1" parent="WIyWlLk6GJQsqaUBKTNV-1" source="slgPaLGqE5JEInqj2BbJ-12" target="slgPaLGqE5JEInqj2BbJ-8">
          <mxGeometry relative="1" as="geometry" />
        </mxCell>
        <mxCell id="slgPaLGqE5JEInqj2BbJ-22" value="" style="edgeStyle=orthogonalEdgeStyle;rounded=0;orthogonalLoop=1;jettySize=auto;html=1;" edge="1" parent="WIyWlLk6GJQsqaUBKTNV-1" source="slgPaLGqE5JEInqj2BbJ-12" target="slgPaLGqE5JEInqj2BbJ-9">
          <mxGeometry relative="1" as="geometry" />
        </mxCell>
        <mxCell id="slgPaLGqE5JEInqj2BbJ-12" value="&lt;span style=&quot;font-size: 16px;&quot;&gt;Repository Exists??&lt;/span&gt;" style="rhombus;whiteSpace=wrap;html=1;fillColor=#f8cecc;strokeColor=#b85450;" vertex="1" parent="WIyWlLk6GJQsqaUBKTNV-1">
          <mxGeometry x="-810" y="230" width="270" height="140" as="geometry" />
        </mxCell>
        <mxCell id="slgPaLGqE5JEInqj2BbJ-25" value="" style="edgeStyle=orthogonalEdgeStyle;rounded=0;orthogonalLoop=1;jettySize=auto;html=1;" edge="1" parent="WIyWlLk6GJQsqaUBKTNV-1" source="slgPaLGqE5JEInqj2BbJ-13" target="slgPaLGqE5JEInqj2BbJ-15">
          <mxGeometry relative="1" as="geometry" />
        </mxCell>
        <mxCell id="slgPaLGqE5JEInqj2BbJ-26" value="" style="edgeStyle=orthogonalEdgeStyle;rounded=0;orthogonalLoop=1;jettySize=auto;html=1;" edge="1" parent="WIyWlLk6GJQsqaUBKTNV-1" source="slgPaLGqE5JEInqj2BbJ-13" target="slgPaLGqE5JEInqj2BbJ-16">
          <mxGeometry relative="1" as="geometry" />
        </mxCell>
        <mxCell id="slgPaLGqE5JEInqj2BbJ-13" value="&lt;span style=&quot;font-size: 16px;&quot;&gt;Repository Name Valid and exists?&lt;/span&gt;" style="rhombus;whiteSpace=wrap;html=1;fillColor=#f8cecc;strokeColor=#b85450;" vertex="1" parent="WIyWlLk6GJQsqaUBKTNV-1">
          <mxGeometry x="-10" y="225" width="303" height="150" as="geometry" />
        </mxCell>
        <mxCell id="slgPaLGqE5JEInqj2BbJ-27" style="edgeStyle=orthogonalEdgeStyle;rounded=0;orthogonalLoop=1;jettySize=auto;html=1;entryX=0.5;entryY=1;entryDx=0;entryDy=0;" edge="1" parent="WIyWlLk6GJQsqaUBKTNV-1" source="slgPaLGqE5JEInqj2BbJ-15" target="slgPaLGqE5JEInqj2BbJ-16">
          <mxGeometry relative="1" as="geometry">
            <mxPoint x="550" y="390" as="targetPoint" />
          </mxGeometry>
        </mxCell>
        <mxCell id="slgPaLGqE5JEInqj2BbJ-15" value="&lt;font style=&quot;font-size: 16px;&quot;&gt;Select the Suitable name for repository.&lt;/font&gt;" style="rounded=1;whiteSpace=wrap;html=1;fillColor=#dae8fc;strokeColor=#6c8ebf;" vertex="1" parent="WIyWlLk6GJQsqaUBKTNV-1">
          <mxGeometry x="-3.5" y="480" width="290" height="70" as="geometry" />
        </mxCell>
        <mxCell id="slgPaLGqE5JEInqj2BbJ-28" value="" style="edgeStyle=orthogonalEdgeStyle;rounded=0;orthogonalLoop=1;jettySize=auto;html=1;" edge="1" parent="WIyWlLk6GJQsqaUBKTNV-1" source="slgPaLGqE5JEInqj2BbJ-16" target="slgPaLGqE5JEInqj2BbJ-17">
          <mxGeometry relative="1" as="geometry" />
        </mxCell>
        <mxCell id="slgPaLGqE5JEInqj2BbJ-16" value="&lt;font style=&quot;font-size: 16px;&quot;&gt;Check the Access granted&lt;/font&gt;" style="rounded=1;whiteSpace=wrap;html=1;fillColor=#dae8fc;strokeColor=#6c8ebf;" vertex="1" parent="WIyWlLk6GJQsqaUBKTNV-1">
          <mxGeometry x="390" y="265" width="290" height="70" as="geometry" />
        </mxCell>
        <mxCell id="slgPaLGqE5JEInqj2BbJ-17" value="&lt;font style=&quot;font-size: 16px;&quot;&gt;Check boxes and Create&lt;/font&gt;" style="rounded=1;whiteSpace=wrap;html=1;fillColor=#dae8fc;strokeColor=#6c8ebf;" vertex="1" parent="WIyWlLk6GJQsqaUBKTNV-1">
          <mxGeometry x="780" y="265" width="290" height="70" as="geometry" />
        </mxCell>
      </root>
    </mxGraphModel>
  </diagram>
</mxfile>
